<svg aria-hidden="true" style="position: absolute; width: 0; height: 0; overflow: hidden;" version="1.1" xmlns="http://www.w3.org/2000/svg" xmlns:xlink="http://www.w3.org/1999/xlink">
<defs>
<symbol id="arrow-right" viewBox="0 0 32 32">
<path d="M30.222 16c0-0.982-0.796-1.778-1.778-1.778h-24.889c-0.982 0-1.778 0.796-1.778 1.778s0.796 1.778 1.778 1.778h24.889c0.982 0 1.778-0.796 1.778-1.778z"></path>
<path d="M14.743 2.298c-0.694 0.694-0.694 1.82 0 2.514l11.187 11.187-11.187 11.187c-0.694 0.694-0.694 1.82 0 2.514s1.82 0.694 2.514 0l12.444-12.444c0.694-0.694 0.694-1.82 0-2.514l-12.444-12.444c-0.694-0.694-1.82-0.694-2.514 0z"></path>
</symbol>
<symbol id="arrow-left" viewBox="0 0 32 32">
<path d="M1.778 16c0-0.982 0.796-1.778 1.778-1.778h24.889c0.982 0 1.778 0.796 1.778 1.778s-0.796 1.778-1.778 1.778h-24.889c-0.982 0-1.778-0.796-1.778-1.778z"></path>
<path d="M17.257 2.298c0.694 0.694 0.694 1.82 0 2.514l-11.187 11.187 11.187 11.187c0.694 0.694 0.694 1.82 0 2.514s-1.82 0.694-2.514 0l-12.444-12.444c-0.694-0.694-0.694-1.82 0-2.514l12.444-12.444c0.694-0.694 1.82-0.694 2.514 0z"></path>
</symbol>
<symbol id="film" viewBox="0 0 32 32">
<path d="M5.573 4c-0.869 0-1.573 0.704-1.573 1.573v20.853c0 0.869 0.704 1.573 1.573 1.573h20.853c0.869 0 1.573-0.704 1.573-1.573v-20.853c0-0.869-0.704-1.573-1.573-1.573h-20.853zM1.333 5.573c0-2.342 1.898-4.24 4.24-4.24h20.853c2.342 0 4.24 1.898 4.24 4.24v20.853c0 2.342-1.898 4.24-4.24 4.24h-20.853c-2.342 0-4.24-1.898-4.24-4.24v-20.853z"></path>
<path d="M9.333 1.333c0.736 0 1.333 0.597 1.333 1.333v26.667c0 0.736-0.597 1.333-1.333 1.333s-1.333-0.597-1.333-1.333v-26.667c0-0.736 0.597-1.333 1.333-1.333z"></path>
<path d="M22.667 1.333c0.736 0 1.333 0.597 1.333 1.333v26.667c0 0.736-0.597 1.333-1.333 1.333s-1.333-0.597-1.333-1.333v-26.667c0-0.736 0.597-1.333 1.333-1.333z"></path>
<path d="M1.333 16c0-0.736 0.597-1.333 1.333-1.333h26.667c0.736 0 1.333 0.597 1.333 1.333s-0.597 1.333-1.333 1.333h-26.667c-0.736 0-1.333-0.597-1.333-1.333z"></path>
<path d="M1.333 9.333c0-0.736 0.597-1.333 1.333-1.333h6.667c0.736 0 1.333 0.597 1.333 1.333s-0.597 1.333-1.333 1.333h-6.667c-0.736 0-1.333-0.597-1.333-1.333z"></path>
<path d="M1.333 22.667c0-0.736 0.597-1.333 1.333-1.333h6.667c0.736 0 1.333 0.597 1.333 1.333s-0.597 1.333-1.333 1.333h-6.667c-0.736 0-1.333-0.597-1.333-1.333z"></path>
<path d="M21.333 22.667c0-0.736 0.597-1.333 1.333-1.333h6.667c0.736 0 1.333 0.597 1.333 1.333s-0.597 1.333-1.333 1.333h-6.667c-0.736 0-1.333-0.597-1.333-1.333z"></path>
<path d="M21.333 9.333c0-0.736 0.597-1.333 1.333-1.333h6.667c0.736 0 1.333 0.597 1.333 1.333s-0.597 1.333-1.333 1.333h-6.667c-0.736 0-1.333-0.597-1.333-1.333z"></path>
</symbol>
<symbol id="heart" viewBox="0 0 32 32">
<path d="M16 30.144l-2.24-2.218c-8.32-7.287-13.76-12.198-13.76-18.218 0-4.911 3.84-8.713 8.8-8.713 2.72 0 5.44 1.267 7.2 3.327 1.76-2.059 4.48-3.327 7.2-3.327 4.96 0 8.8 3.802 8.8 8.713 0 6.020-5.44 10.931-13.76 18.218l-2.24 2.218z"></path>
</symbol>
<symbol id="search" viewBox="0 0 32 32">
<path d="M14.4 3.2c-6.186 0-11.2 5.014-11.2 11.2s5.014 11.2 11.2 11.2c6.186 0 11.2-5.014 11.2-11.2s-5.014-11.2-11.2-11.2zM0 14.4c0-7.953 6.447-14.4 14.4-14.4s14.4 6.447 14.4 14.4c0 7.953-6.447 14.4-14.4 14.4s-14.4-6.447-14.4-14.4z"></path>
<path d="M22.308 22.309c0.625-0.625 1.638-0.625 2.263 0l6.96 6.96c0.625 0.625 0.625 1.638 0 2.263s-1.638 0.625-2.263 0l-6.96-6.96c-0.625-0.625-0.625-1.638 0-2.263z"></path>
</symbol>
</defs>
</svg>
